<?xml version="1.0" encoding="utf-8"?>
<!-- Generator: Adobe Illustrator 23.1.0, SVG Export Plug-In . SVG Version: 6.00 Build 0)  -->
<svg version="1.1" id="Layer_1" xmlns="http://www.w3.org/2000/svg" xmlns:xlink="http://www.w3.org/1999/xlink" x="0px" y="0px"
	 viewBox="0 0 692 500" style="enable-background:new 0 0 692 500;" xml:space="preserve">
<style type="text/css">
	.st0{fill:#3E3D40;}
	.st1{fill:#CFD5DA;}
	.st2{fill:#83868A;}
	.st3{fill:#F89820;}
	.st4{fill:#CCCCCC;}
	.st5{fill:#B1B3B4;}
	.st6{fill:#767676;}
	.st7{opacity:0.3;}
	.st8{fill:#010101;}
	.st9{fill:#818484;}
	.st10{fill:#EDEDEE;}
	.st11{fill:#FFFFFF;}
	.st12{fill:#D6D5D5;}
	.st13{fill:#1CB394;}
	.st14{fill:#FFFFFF;stroke:#010101;stroke-width:6;stroke-miterlimit:10;}
	.st15{fill:#90D7F2;}
	.st16{fill:#5891CD;}
	.st17{fill:#F16772;}
	.st18{fill:#FEC153;}
	.st19{fill:none;stroke:#B3B3B3;stroke-width:3;stroke-miterlimit:10;}
	.st20{opacity:0.3;fill:#010101;}
	.st21{fill:#E93735;}
	.st22{fill:#D57928;}
</style>
<g>
	<g>
		<path class="st0" d="M97.7,127.1c166.1,0,332.2,0,498.3,0c8.9,2.1,11.6,5.4,11.6,14.8c0.1,22,0,44.1,0,66.1
			c0,84.5,0,168.9,0,253.4c0,2.8,0.6,5.8-1.2,8.4c-1.1,1.2-2.6,1.1-4,1.2c-2.3,0.1-4.6,0.1-6.8,0.1c-64.8,0-129.6,0-194.4,0
			c-2.6,0-5.3,0-7.9-0.2c-22.1,0.4-44.2,0.1-66.3,0.2c-9.3,0-18.6,0.2-28-0.2c-2.2,0.1-4.3,0.2-6.5,0.2c-65.3,0-130.6,0-195.9,0
			c-9.4,0-9.4,0-9.4-9.5c0-106,0-212.1,0-318.1c0-1.7,0.1-3.4-0.1-5C87.1,131.9,89.8,129,97.7,127.1z"/>
		<path class="st1" d="M605.8,469.3c28.8,0,57.7,0,86.5,0.1c0,6.7,0,13.4,0,20.1c-0.6,0.5-1.2,0.8-2,0.8c-3.9-0.9-7.9,0.2-11.8,0.2
			c-53.3-0.1-106.6,0-159.9,0c-167.7,0-335.4,0-503.1,0.1c-4.3,0-8.6-1.1-12.9-0.2c-0.8,0-1.4-0.3-2-0.8c0-6.7,0-13.4,0-20.1
			c27.4,0,54.8,0,82.3,0c4.6,0,6.2,0.1,9.4,0.1c67.5-0.1,134.9-0.1,202.4-0.1c1.4,0,2.9,0.1,4.3,0.1c1.2,0.8,1.5,2.1,1.7,3.4
			c0.5,2.8,2.3,4,5,4.2c1.1,0.1,2.1,0.1,3.2,0.1c25,0,49.9,0,74.9,0c1,0,1.9,0,2.9,0c2.8,0,4.6-1.2,4.8-4.2c0.1-1.3,0.5-2.6,1.7-3.4
			c3.7,0,7.4-0.1,11.1-0.1c65.5,0,131,0,196.4,0C602.4,469.4,604.1,469.4,605.8,469.3z"/>
		<path class="st2" d="M2.1,489.5c1.1-1,2.5-0.6,3.8-0.6c227,0,454.1,0,681.1,0c1.3,0,2.7-0.4,3.8,0.6c-0.5,1.9-2.1,2.5-3.7,3
			c-8.3,2.9-16.2,6.7-25,7.8c-210.4,0-420.9,0-631.3,0c-8.8-1.2-16.8-5-25-7.8C4.2,491.9,2.6,491.4,2.1,489.5z"/>
		<path class="st3" d="M347.1,453.6c-77.5,0-155,0-232.6,0.1c-3.3,0-4.1-0.9-4-4.1c0.1-99,0.1-197.9,0-296.9c0-3.3,0.8-4.1,4.1-4.1
			c155,0.1,310.1,0.1,465.1,0c3.3,0,4.1,0.9,4,4.1c-0.1,99-0.1,197.9,0,296.9c0,3.3-0.9,4.1-4.1,4
			C502.2,453.6,424.7,453.6,347.1,453.6z"/>
		<path class="st4" d="M209.4,453.6c-32.4,0-64.8,0-97.2,0.1c-1.4,0-1.7-0.9-1.7-4.1c0-99,0-197.9,0-296.9c0-3.3,0.3-4.1,1.7-4.1
			c64.8,0.1,129.6,0.1,194.4,0c1.4,0,1.7,0.9,1.7,4.1c0,99,0,197.9,0,296.9c0,3.3-0.4,4.1-1.7,4
			C274.2,453.6,241.8,453.6,209.4,453.6z"/>
		<path class="st5" d="M393.2,469.5c0,1.1,0,2.2,0,3.2c-0.1,4.4-1.6,6-6.2,6c-27.1,0-54.1,0-81.2,0c-5.5,0-6.7-1.7-6.9-9.2
			C330.4,469.5,361.8,469.5,393.2,469.5z"/>
		<rect x="127.1" y="183.2" class="st6" width="71.9" height="7.9"/>
		<rect x="127.1" y="204.8" class="st6" width="163.9" height="7.9"/>
		<rect x="127.1" y="233" class="st6" width="163.9" height="7.9"/>
		<rect x="127.1" y="261.2" class="st6" width="163.9" height="7.9"/>
		<rect x="127.1" y="289.4" class="st6" width="163.9" height="7.9"/>
		<rect x="127.1" y="317.5" class="st6" width="163.9" height="7.9"/>
		<rect x="127.1" y="345.7" class="st6" width="163.9" height="7.9"/>
		<rect x="127.1" y="378.7" class="st6" width="163.9" height="7.9"/>
		<rect x="127.1" y="406.8" class="st6" width="163.9" height="7.9"/>
	</g>
	<g class="st7">
		<polygon class="st8" points="460.4,107.6 460.4,13.6 250.5,13.6 250.5,289.4 387.1,289.4 387.1,422.1 636.6,422.1 636.6,107.6 		
			"/>
	</g>
	<path class="st9" d="M348.6,140.1c-0.3,1.4-0.9,2.1-2.2,2.1c-1.4-0.1-2.2-1-2-2.4c0.2-1.3,1.1-1.9,2.3-1.7
		C348,138.1,348.5,139,348.6,140.1z"/>
	<g>
		<rect x="263.8" y="0.3" class="st10" width="210" height="275.8"/>
	</g>
	<g>
		<rect x="400.4" y="94.3" class="st11" width="249.5" height="314.5"/>
	</g>
	<g>
		<path class="st8" d="M185.6,292.7c-5.2,0-10.3,2-14.2,5.9l-85.9,85.9c-7.8,7.8-7.8,20.6,0,28.5l0,0c3.9,3.9,9.1,5.9,14.2,5.9
			c5.2,0,10.3-2,14.2-5.9l85.9-85.9c7.8-7.8,7.8-20.6,0-28.5v0C195.9,294.7,190.7,292.7,185.6,292.7L185.6,292.7z"/>
	</g>
	<g>
		<rect x="435" y="130.1" class="st11" width="22.8" height="22.8"/>
		<path class="st8" d="M454.8,133.1v16.8H438v-16.8H454.8 M460.8,127.1H432v28.8h28.8V127.1L460.8,127.1z"/>
	</g>
	<g>
		<rect x="478.7" y="127.1" class="st12" width="141.6" height="9.3"/>
	</g>
	<g>
		<rect x="478.7" y="146.6" class="st12" width="141.6" height="9.3"/>
	</g>
	<g>
		<rect x="473" y="317" class="st12" width="44.6" height="9.3"/>
	</g>
	<g>
		<rect x="432" y="280.3" class="st12" width="188.4" height="9.3"/>
	</g>
	<g>
		<rect x="432" y="258.7" class="st12" width="188.4" height="9.3"/>
	</g>
	<g>
		
			<rect x="445.1" y="137" transform="matrix(0.7071 -0.7071 0.7071 0.7071 29.6793 357.9471)" class="st11" width="3.6" height="12.2"/>
		<polygon class="st13" points="443.9,137.6 441.3,140.1 450,148.7 452.5,146.2 443.9,137.6 		"/>
	</g>
	<g>
		
			<rect x="445.4" y="137.9" transform="matrix(0.7071 -0.7071 0.7071 0.7071 34.88 363.6185)" class="st11" width="21.9" height="3.6"/>
		<polygon class="st13" points="462.9,130.7 447.3,146.2 449.9,148.7 465.4,133.2 462.9,130.7 		"/>
	</g>
	<g>
		<g>
			<rect x="435" y="172.6" class="st11" width="22.8" height="22.8"/>
			<path class="st8" d="M454.8,175.6v16.8H438v-16.8H454.8 M460.8,169.6H432v28.8h28.8V169.6L460.8,169.6z"/>
		</g>
		<g>
			<rect x="478.7" y="179.6" class="st12" width="141.6" height="9.3"/>
		</g>
		<g>
			
				<rect x="445.1" y="179.5" transform="matrix(0.7071 -0.7071 0.7071 0.7071 -0.3174 370.3721)" class="st11" width="3.6" height="12.2"/>
			<polygon class="st13" points="443.9,180 441.3,182.5 450,191.2 452.5,188.6 443.9,180 			"/>
		</g>
		<g>
			
				<rect x="445.4" y="180.3" transform="matrix(0.7071 -0.7071 0.7071 0.7071 4.8834 376.0435)" class="st11" width="21.9" height="3.6"/>
			<polygon class="st13" points="462.9,173.1 447.3,188.6 449.9,191.2 465.4,175.6 462.9,173.1 			"/>
		</g>
	</g>
	<g>
		<g>
			<rect x="435" y="215" class="st11" width="22.8" height="22.8"/>
			<path class="st8" d="M454.8,218v16.8H438V218H454.8 M460.8,212H432v28.8h28.8V212L460.8,212z"/>
		</g>
		<g>
			<rect x="478.7" y="212" class="st12" width="141.6" height="9.3"/>
		</g>
		<g>
			<rect x="478.7" y="231.4" class="st12" width="70.5" height="9.3"/>
		</g>
		<g>
			
				<rect x="445.1" y="221.9" transform="matrix(0.7071 -0.7071 0.7071 0.7071 -30.314 382.7971)" class="st11" width="3.6" height="12.2"/>
			<polygon class="st13" points="443.9,222.4 441.3,224.9 450,233.6 452.5,231 443.9,222.4 			"/>
		</g>
		<g>
			
				<rect x="445.4" y="222.8" transform="matrix(0.7071 -0.7071 0.7071 0.7071 -25.1133 388.4685)" class="st11" width="21.9" height="3.6"/>
			<polygon class="st13" points="462.9,215.5 447.3,231 449.9,233.6 465.4,218.1 462.9,215.5 			"/>
		</g>
	</g>
	<circle class="st14" cx="446.4" cy="321.3" r="12.2"/>
	<g>
		<path class="st11" d="M446.4,322.6c-0.7,0-1.3-0.6-1.3-1.3s0.6-1.3,1.3-1.3s1.3,0.6,1.3,1.3S447.1,322.6,446.4,322.6z"/>
		<path class="st13" d="M446.4,317c-2.4,0-4.3,1.9-4.3,4.3c0,2.4,1.9,4.3,4.3,4.3s4.3-1.9,4.3-4.3C450.7,318.9,448.8,317,446.4,317
			L446.4,317z"/>
	</g>
	<g>
		<g>
			<rect x="575.8" y="317" class="st12" width="44.6" height="9.3"/>
		</g>
		<circle class="st14" cx="549.2" cy="321.3" r="12.2"/>
		<g>
			<path class="st11" d="M549.2,322.6c-0.7,0-1.3-0.6-1.3-1.3s0.6-1.3,1.3-1.3s1.3,0.6,1.3,1.3S549.9,322.6,549.2,322.6z"/>
			<path class="st13" d="M549.2,317c-2.4,0-4.3,1.9-4.3,4.3c0,2.4,1.9,4.3,4.3,4.3c2.4,0,4.3-1.9,4.3-4.3
				C553.5,318.9,551.6,317,549.2,317L549.2,317z"/>
		</g>
	</g>
	<g>
		<g>
			<rect x="575.8" y="357.2" class="st12" width="44.6" height="9.3"/>
		</g>
		<circle class="st14" cx="549.2" cy="361.5" r="12.2"/>
		<g>
			<path class="st11" d="M549.2,362.9c-0.7,0-1.3-0.6-1.3-1.3s0.6-1.3,1.3-1.3s1.3,0.6,1.3,1.3S549.9,362.9,549.2,362.9z"/>
			<path class="st13" d="M549.2,357.2c-2.4,0-4.3,1.9-4.3,4.3c0,2.4,1.9,4.3,4.3,4.3c2.4,0,4.3-1.9,4.3-4.3
				C553.5,359.2,551.6,357.2,549.2,357.2L549.2,357.2z"/>
		</g>
	</g>
	<g>
		<g>
			<rect x="473" y="357.2" class="st12" width="44.6" height="9.3"/>
		</g>
		<circle class="st14" cx="446.4" cy="361.5" r="12.2"/>
		<g>
			<path class="st11" d="M446.4,362.9c-0.7,0-1.3-0.6-1.3-1.3s0.6-1.3,1.3-1.3s1.3,0.6,1.3,1.3S447.1,362.9,446.4,362.9z"/>
			<path class="st13" d="M446.4,357.2c-2.4,0-4.3,1.9-4.3,4.3c0,2.4,1.9,4.3,4.3,4.3s4.3-1.9,4.3-4.3
				C450.7,359.2,448.8,357.2,446.4,357.2L446.4,357.2z"/>
		</g>
	</g>
	<g>
		<rect x="276" y="18.6" class="st15" width="97.8" height="8.2"/>
	</g>
	<g>
		<rect x="276" y="33" class="st16" width="79.1" height="8.2"/>
	</g>
	<g>
		<rect x="276" y="47.4" class="st17" width="60.4" height="8.2"/>
	</g>
	<g>
		<rect x="276" y="61.8" class="st18" width="15.1" height="8.2"/>
	</g>
	<g>
		<circle class="st15" cx="425.9" cy="52.7" r="34.2"/>
	</g>
	<g>
		<path class="st17" d="M425.9,18.6c-0.1,0-0.2,0-0.4,0v34.5H460c0-0.1,0-0.2,0-0.4C460,33.9,444.8,18.6,425.9,18.6z"/>
	</g>
	<g>
		<rect x="276" y="97" class="st12" width="1.4" height="161.8"/>
	</g>
	<g>
		<rect x="276" y="258" class="st12" width="161.8" height="1.4"/>
	</g>
	<polyline class="st19" points="276.3,258.4 322,169.6 348.6,206.2 394.3,156.3 	"/>
	<polyline class="st19" points="276.3,258.4 319.5,221.7 366.9,241.1 409.4,221 	"/>
	<g>
		<circle class="st13" cx="321.6" cy="169.2" r="6.5"/>
	</g>
	<g>
		<circle class="st13" cx="319.8" cy="222.1" r="6.5"/>
	</g>
	<g>
		<circle class="st13" cx="348.6" cy="205.5" r="6.5"/>
	</g>
	<g>
		<circle class="st13" cx="367.3" cy="240.8" r="6.5"/>
	</g>
	<g>
		<rect x="387.4" y="107" class="st20" width="12.9" height="165.4"/>
	</g>
	<g class="st7">
		<polygon class="st8" points="154.8,207.3 28.3,207.3 28.3,50.6 111.2,50.6 154.8,94.2 		"/>
	</g>
	<g>
		<polygon class="st21" points="165.5,196.7 38.9,196.7 38.9,39.9 121.9,39.9 165.5,83.5 		"/>
	</g>
	<path class="st11" d="M113.6,124.6c4.6,0.1,9,0.8,13.2,2.7c1.9,0.8,3.7,1.9,5,3.6c1.5,2,1.7,4.6,0.5,6.7c-1.2,2.1-3.4,3.2-5.9,3
		c-2.3-0.2-4.3-1.2-6.3-2.3c-3.8-2.2-7.1-5.1-10.1-8.3c-0.4-0.4-0.7-0.5-1.2-0.4c-5.4,1-10.7,2.2-15.9,3.9c-0.4,0.1-0.7,0.4-0.9,0.7
		c-1.7,2.7-3.5,5.4-5.7,7.8c-2.2,2.4-4.6,4.4-7.7,5.5c-1.9,0.6-3.7,0.7-5.4-0.5c-1.8-1.2-2.3-3.6-1.2-5.8c0.8-1.7,2.1-3,3.5-4.2
		c2.8-2.3,6-4,9.2-5.4c1.3-0.6,2.6-1,3.9-1.6c0.3-0.1,0.7-0.4,0.8-0.7c1.7-3.4,3.5-6.9,5.2-10.3c1-2,1.8-4.1,2.6-6.1
		c0.2-0.5,0.2-0.9,0-1.4c-2.1-4.9-3.3-9.9-2.7-15.2c0.2-2.3,0.8-4.5,2.6-6.1c3.2-3.1,7.8-1.3,8.5,2.9c0.4,1.9,0.2,3.9,0,5.8
		c-0.5,4.3-1.5,8.5-2.9,12.6c-0.1,0.3,0,0.7,0.1,1c1.4,2.5,2.8,5,4.6,7.2c1.2,1.4,2.3,2.8,3.4,4.2c0.4,0.5,0.9,0.8,1.6,0.7
		C112.8,124.5,113.2,124.6,113.6,124.6z M100.2,117.7c-1.6,3.4-3.1,6.7-4.7,10.1c3.5-0.8,6.9-1.6,10.3-2.4
		C103.9,122.8,102.1,120.3,100.2,117.7z M116.1,129.3c0.2,0.3,0.3,0.4,0.4,0.4c2.1,1.9,4.4,3.7,7,5c1.1,0.5,2.3,0.8,3.5,1.1
		c0.6,0.2,1.2-0.1,1.5-0.8c0.3-0.7,0.1-1.3-0.7-2c-1.3-1.1-2.9-1.8-4.5-2.3C120.9,130.1,118.6,129.6,116.1,129.3z M99.7,104.4
		c0-0.1,0.1-0.2,0.1-0.3c0.4-2.6,0.8-5.1,1.2-7.7c0.1-0.7,0-1.5,0-2.2c0-0.3-0.3-0.5-0.5-0.8c-0.2,0.2-0.5,0.3-0.7,0.6
		c-0.7,1-0.8,2.3-0.9,3.5C98.8,99.8,99,102.1,99.7,104.4z M76.1,143.2c3.6-0.8,5.9-3.4,8-6.2C81.1,138.6,78,140.1,76.1,143.2z"/>
	<polygon class="st11" points="121.9,39.9 121.9,83.5 165.5,83.5 	"/>
	<g>
		<path class="st8" d="M280.3,106.8c56,0,101.6,45.6,101.6,101.6S336.3,310,280.3,310s-101.6-45.6-101.6-101.6
			S224.2,106.8,280.3,106.8 M280.3,66.8c-78.2,0-141.6,63.4-141.6,141.6S202.1,350,280.3,350s141.6-63.4,141.6-141.6
			S358.5,66.8,280.3,66.8L280.3,66.8z"/>
	</g>
	<g class="st7">
		<path class="st11" d="M211.6,233.6c0-51.8,42-93.8,93.8-93.8c19.4,0,37.4,5.9,52.4,16c-16.9-25-45.4-41.5-77.9-41.5
			c-51.8,0-93.8,42-93.8,93.8c0,32.4,16.5,61,41.5,77.9C217.5,271,211.6,252.9,211.6,233.6z"/>
	</g>
	
		<rect x="114.2" y="313.4" transform="matrix(0.7071 0.7071 -0.7071 0.7071 292.4578 1.2203)" class="st3" width="61.1" height="80.5"/>
	
		<rect x="142.2" y="320.6" transform="matrix(0.7071 0.7071 -0.7071 0.7071 299.719 -1.7874)" class="st22" width="19.6" height="80.5"/>
</g>
</svg>
